<?xml version="1.0" standalone="no"?>
<!DOCTYPE svg PUBLIC "-//W3C//DTD SVG 20010904//EN"
 "http://www.w3.org/TR/2001/REC-SVG-20010904/DTD/svg10.dtd">
<svg version="1.0" xmlns="http://www.w3.org/2000/svg"
 width="800.000000pt" height="600.000000pt" viewBox="0 0 800.000000 600.000000"
 preserveAspectRatio="xMidYMid meet">

<g transform="translate(0.000000,600.000000) scale(0.100000,-0.100000)"
fill="#000000" stroke="none">
<path d="M4845 5224 c-354 -58 -592 -313 -682 -734 -14 -66 -18 -127 -17 -272
0 -103 2 -190 5 -192 4 -4 152 42 222 69 12 5 17 2 17 -11 0 -11 5 -26 11 -34
9 -13 10 -12 5 2 -3 12 -1 15 10 11 7 -3 14 -9 14 -14 0 -14 30 -11 30 4 0 6
9 1 20 -13 11 -14 18 -18 14 -8 -4 11 0 16 13 15 10 -1 22 -6 26 -12 6 -6 10
-6 14 3 2 6 9 10 14 6 5 -3 9 1 9 9 0 8 11 17 24 19 19 4 23 1 18 -11 -4 -12
0 -12 17 4 16 14 22 15 19 5 -2 -8 -7 -19 -13 -23 -5 -5 6 -5 25 -1 19 3 41
11 48 17 9 7 18 6 30 -6 11 -12 12 -17 4 -17 -8 0 -10 -5 -6 -12 5 -8 2 -9
-10 -5 -9 4 -15 3 -11 -2 3 -5 -1 -12 -7 -15 -12 -5 7 -1 52 11 8 2 -9 -8 -38
-22 -30 -15 -57 -24 -60 -20 -4 3 0 10 8 15 9 6 10 10 3 10 -6 0 -22 -13 -36
-30 -26 -30 -119 -79 -195 -101 -54 -16 -62 -26 -16 -21 19 2 34 8 34 14 0 5
4 7 8 4 13 -8 8 -59 -6 -64 -7 -2 -10 2 -6 11 3 8 0 18 -6 22 -6 3 -9 1 -8 -6
2 -7 -6 -15 -16 -17 -14 -3 -17 0 -13 13 4 9 3 14 -3 10 -6 -3 -8 -19 -5 -35
4 -24 2 -27 -14 -23 -19 5 -51 -20 -51 -40 0 -8 3 -8 9 1 7 11 9 11 14 -2 8
-21 -8 -20 -45 2 -28 16 -30 16 -44 -3 -9 -11 -20 -19 -25 -18 -5 2 -8 -2 -6
-8 1 -6 -6 -13 -15 -14 -10 -2 -18 3 -18 11 0 8 -4 14 -10 14 -5 0 -8 -6 -6
-12 3 -7 7 -28 10 -47 5 -30 4 -32 -11 -20 -15 12 -16 12 -10 -4 4 -10 3 -16
-2 -13 -5 3 -8 22 -6 41 2 19 0 33 -5 30 -5 -3 -6 -13 -3 -22 5 -12 2 -15 -9
-10 -9 3 -23 -2 -34 -14 -9 -10 -12 -19 -6 -19 6 0 16 8 22 18 11 16 11 15 5
-2 -3 -11 0 -23 7 -28 8 -6 4 -7 -11 -3 -15 5 -27 2 -32 -6 -7 -11 -9 -9 -9 5
0 20 0 20 -15 0 -8 -10 -15 -14 -15 -7 0 6 7 19 16 27 14 15 14 16 -5 16 -12
0 -20 -3 -20 -7 3 -20 -2 -26 -11 -13 -8 13 -10 12 -10 -2 0 -10 5 -18 11 -18
5 0 7 -4 4 -10 -8 -13 -75 -13 -75 0 0 11 -30 1 -48 -17 -11 -11 -11 -13 2
-13 9 0 16 -5 16 -11 0 -5 5 -7 11 -3 8 5 8 9 -1 14 -8 5 -7 9 4 13 9 4 16 2
16 -4 0 -6 5 -7 10 -4 16 10 12 -5 -9 -31 -13 -17 -21 -20 -24 -12 -4 10 -6
10 -6 1 -1 -7 -5 -13 -11 -13 -5 0 -7 8 -3 18 3 11 0 9 -12 -6 -13 -18 -20
-21 -31 -11 -12 10 -13 9 -8 -5 3 -9 1 -16 -5 -16 -11 0 -15 12 -12 40 2 13 1
13 -8 0 -5 -8 -8 -18 -5 -22 6 -10 -37 -68 -50 -68 -6 0 -5 4 2 8 18 12 4 42
-16 35 -12 -5 -14 -2 -9 12 7 16 5 16 -9 4 -10 -8 -12 -15 -5 -17 6 -2 11 -10
11 -18 0 -8 -6 -11 -16 -7 -9 3 -21 -3 -31 -17 -12 -17 -17 -19 -24 -9 -6 10
-9 11 -9 2 0 -7 -7 -13 -15 -13 -8 0 -15 5 -15 10 0 6 -10 24 -21 39 -12 16
-19 34 -15 39 3 6 29 18 56 27 27 9 52 21 55 26 10 15 -13 10 -52 -11 -21 -11
-43 -20 -50 -20 -6 0 -13 -5 -15 -12 -4 -12 -68 78 -68 96 0 6 -11 20 -25 30
-14 10 -25 22 -25 26 0 4 -31 39 -68 78 -52 55 -75 72 -96 72 -15 0 -25 4 -22
9 4 5 0 11 -6 14 -10 3 -10 7 1 21 15 18 17 15 -64 101 -22 23 -65 68 -96 101
-31 32 -76 76 -100 96 -24 20 -53 45 -65 55 -11 10 -27 23 -36 28 -8 6 -49 33
-89 61 -153 105 -276 158 -411 175 -150 19 -284 -23 -391 -121 -98 -89 -174
-273 -197 -475 -44 -393 79 -927 342 -1485 239 -505 596 -995 811 -1114 183
-100 232 -120 340 -135 353 -49 620 211 692 673 27 174 17 444 -24 645 -17 85
-30 155 -29 156 5 4 412 215 526 273 l113 57 34 -37 c19 -20 35 -44 35 -52 0
-9 5 -16 11 -16 7 0 48 -35 93 -78 160 -154 217 -190 381 -241 197 -62 364
-64 533 -7 255 87 468 315 567 607 38 112 53 182 65 324 47 511 -186 1079
-582 1425 -90 78 -231 180 -249 180 -5 0 -9 7 -9 15 0 9 -9 15 -22 15 -12 0
-66 18 -121 41 -149 61 -233 80 -377 84 -69 2 -138 1 -155 -1z m-325 -1154 c0
-5 -2 -10 -4 -10 -3 0 -8 5 -11 10 -3 6 -1 10 4 10 6 0 11 -4 11 -10z m120
-151 c0 -17 -3 -19 -13 -10 -8 6 -16 10 -18 8 -2 -1 2 4 10 11 20 16 21 16 21
-9z m-60 -29 c-8 -5 -18 -6 -24 -3 -5 4 -1 10 10 13 24 9 34 2 14 -10z m-55
-16 c-20 -16 -20 -16 1 -10 14 4 21 2 21 -8 0 -8 -6 -12 -14 -10 -48 15 -47
14 -27 29 26 20 44 18 19 -1z m-25 -40 c0 -8 -4 -12 -10 -9 -5 3 -10 10 -10
16 0 5 5 9 10 9 6 0 10 -7 10 -16z m-96 -89 c-4 -8 -8 -15 -10 -15 -2 0 -4 7
-4 15 0 8 4 15 10 15 5 0 7 -7 4 -15z m-79 -33 c19 -11 18 -11 -7 -12 -22 0
-28 5 -28 23 0 12 3 17 8 11 4 -6 16 -16 27 -22z m-55 -41 c0 -5 -7 -12 -16
-15 -14 -5 -15 -4 -4 9 14 17 20 19 20 6z m-2176 -43 c-4 -6 -10 -5 -15 3 -14
22 -10 33 6 19 8 -7 12 -17 9 -22z m6 -34 c0 -2 -7 -4 -15 -4 -8 0 -15 4 -15
10 0 5 7 7 15 4 8 -4 15 -8 15 -10z m1930 -24 c0 -5 -4 -10 -10 -10 -5 0 -10
5 -10 10 0 6 5 10 10 10 6 0 10 -4 10 -10z m-1962 -52 c-2 -7 2 -12 9 -13 19
0 28 -16 14 -25 -20 -12 -6 -41 16 -33 14 5 16 3 6 -7 -10 -10 -15 -11 -27 -1
-10 9 -16 9 -21 1 -9 -14 -2 -21 21 -24 22 -3 31 -26 11 -26 -16 0 -33 -37
-23 -47 3 -4 6 1 6 10 0 11 8 17 23 16 12 0 16 -3 10 -6 -18 -7 -16 -23 2 -23
21 0 19 -20 -2 -20 -16 -1 -16 -2 2 -16 17 -13 18 -16 5 -24 -12 -8 -11 -10 7
-10 13 0 22 -3 22 -7 -3 -20 3 -23 21 -13 22 12 27 1 8 -18 -19 -19 -18 -42 2
-42 10 0 17 7 16 16 0 9 5 19 13 22 10 3 12 0 8 -11 -4 -11 1 -21 14 -27 14
-8 18 -17 14 -31 -4 -10 -2 -19 3 -19 5 0 9 -7 9 -15 0 -8 -4 -15 -9 -15 -4 0
-8 -8 -8 -18 0 -10 -5 -23 -12 -30 -9 -9 -9 -12 0 -12 6 0 16 8 21 18 9 15 10
15 11 -5 0 -13 4 -23 9 -23 5 0 15 -16 22 -35 7 -20 18 -34 24 -31 6 2 12 -8
13 -23 1 -25 1 -26 -14 -6 -16 19 -16 19 -9 -5 12 -46 48 -110 62 -110 7 0 13
-4 13 -10 0 -5 -4 -10 -9 -10 -5 0 -11 -7 -14 -14 -4 -10 -1 -13 9 -9 7 3 14
0 14 -6 0 -6 -6 -11 -12 -11 -7 -1 -3 -9 10 -19 26 -22 29 -33 6 -24 -14 5
-15 3 -5 -16 l12 -22 21 26 c17 22 23 24 29 13 12 -22 -11 -90 -29 -83 -11 4
-12 1 -6 -12 4 -10 8 -30 9 -45 1 -15 8 -34 15 -43 10 -12 10 -15 -1 -16 -10
0 -10 -2 -2 -5 7 -3 10 -11 7 -18 -6 -14 22 -30 37 -21 5 4 5 -3 0 -17 -5 -13
-15 -21 -23 -19 -7 2 -22 6 -32 9 -13 3 -17 1 -12 -6 4 -7 16 -12 27 -12 23 0
24 -8 2 -32 -9 -10 -11 -18 -5 -18 6 0 9 -6 6 -14 -3 -8 -1 -17 5 -21 20 -12
12 -26 -8 -16 -28 15 -35 -1 -9 -21 l23 -18 -22 0 c-16 0 -25 8 -29 25 -3 14
-10 25 -15 25 -6 0 -6 -7 -1 -17 5 -10 7 -24 4 -32 -2 -8 0 -11 5 -8 6 4 15
-4 21 -17 9 -21 8 -27 -11 -39 -20 -13 -20 -16 -7 -33 14 -18 14 -18 -2 -5
-10 7 -18 21 -19 30 0 12 -2 11 -9 -4 -7 -17 -9 -17 -9 -2 -1 9 -4 17 -8 17
-11 0 -43 58 -43 76 0 9 -4 12 -10 9 -5 -3 -10 2 -10 12 0 10 -9 32 -20 48
-11 17 -20 38 -20 48 0 9 -3 17 -7 17 -11 0 -33 51 -27 61 3 5 0 9 -5 9 -6 0
-11 5 -11 11 0 6 -10 32 -23 58 -13 25 -24 49 -25 54 -4 33 -15 67 -23 67 -5
0 -9 9 -9 20 0 11 -4 20 -8 20 -4 0 -8 8 -9 18 -1 14 -57 190 -83 257 -10 26
-28 109 -36 165 -4 25 -10 50 -14 55 -11 13 -16 102 -7 111 6 7 12 -47 8 -70
-1 -5 2 -12 8 -15 5 -3 11 -26 14 -51 3 -25 10 -56 16 -70 l10 -25 2 30 c2 17
3 40 4 53 0 13 7 27 14 31 9 6 7 10 -8 14 -11 2 -22 0 -25 -7 -3 -7 -5 -7 -5
2 -1 7 6 15 14 18 12 5 12 9 0 28 -19 28 -17 76 3 69 10 -4 11 1 6 23 -4 16
-11 35 -17 42 -5 6 -7 12 -4 12 3 0 14 3 24 6 15 5 15 4 3 -5 -8 -5 -11 -14
-6 -18 4 -4 22 8 38 26 23 26 28 36 17 39 -17 6 -29 23 -23 34 8 12 24 9 22
-4z m69 -4 c-3 -3 -12 -4 -19 -1 -8 3 -5 6 6 6 11 1 17 -2 13 -5z m-92 -34 c3
-5 2 -10 -4 -10 -5 0 -13 5 -16 10 -3 6 -2 10 4 10 5 0 13 -4 16 -10z m-35
-10 c0 -5 -4 -10 -10 -10 -5 0 -10 5 -10 10 0 6 5 10 10 10 6 0 10 -4 10 -10z
m-60 -80 c0 -11 -2 -20 -4 -20 -2 0 -6 9 -9 20 -3 11 -1 20 4 20 5 0 9 -9 9
-20z m225 -110 c3 -5 1 -10 -4 -10 -6 0 -11 5 -11 10 0 6 2 10 4 10 3 0 8 -4
11 -10z m155 -270 c0 -5 -4 -10 -10 -10 -5 0 -10 5 -10 10 0 6 5 10 10 10 6 0
10 -4 10 -10z m20 -100 c0 -5 -7 -7 -15 -4 -8 4 -15 8 -15 10 0 2 7 4 15 4 8
0 15 -4 15 -10z m24 -52 c-9 -14 -23 2 -17 18 4 12 8 13 14 3 4 -7 5 -17 3
-21z m53 -100 c-3 -8 -6 -5 -6 6 -1 11 2 17 5 13 3 -3 4 -12 1 -19z m35 -148
c6 -14 14 -32 18 -40 8 -16 -16 -47 -28 -35 -3 3 0 11 8 16 11 8 12 12 3 16
-7 2 -13 12 -13 22 0 9 -5 22 -10 27 -6 6 -7 19 -3 29 5 14 8 15 11 4 2 -7 8
-25 14 -39z m68 -75 c0 -5 -5 -3 -10 5 -5 8 -10 20 -10 25 0 6 5 3 10 -5 5 -8
10 -19 10 -25z m-150 -350 c7 -9 8 -15 2 -15 -5 0 -12 7 -16 15 -3 8 -4 15 -2
15 2 0 9 -7 16 -15z"/>
<path d="M2040 3390 c0 -5 5 -10 10 -10 6 0 10 5 10 10 0 6 -4 10 -10 10 -5 0
-10 -4 -10 -10z"/>
<path d="M2025 3351 c-3 -6 -1 -11 4 -11 6 0 11 -4 11 -10 0 -5 -7 -10 -15
-10 -8 0 -15 -4 -15 -10 0 -5 7 -10 16 -10 9 0 14 -6 11 -12 -2 -7 12 -21 32
-30 42 -20 51 -22 51 -8 0 6 -9 10 -21 10 -15 0 -19 5 -15 16 3 8 2 12 -4 9
-6 -3 -10 5 -10 18 0 28 -34 64 -45 48z"/>
<path d="M2055 3220 c4 -14 11 -26 15 -28 9 -3 0 -45 -11 -52 -4 -3 3 -17 16
-32 15 -17 27 -24 30 -17 4 6 0 18 -9 28 -18 20 -21 35 -5 25 8 -4 9 1 3 17
-4 13 -7 30 -7 36 0 7 -9 21 -20 30 -19 17 -19 17 -12 -7z"/>
<path d="M2110 3220 c0 -5 9 -10 21 -10 11 0 17 5 14 10 -3 6 -13 10 -21 10
-8 0 -14 -4 -14 -10z"/>
<path d="M2196 3171 c-3 -5 1 -11 9 -15 15 -6 29 7 18 18 -9 9 -21 8 -27 -3z"/>
<path d="M2025 3140 c-3 -5 -1 -10 4 -10 6 0 11 5 11 10 0 6 -2 10 -4 10 -3 0
-8 -4 -11 -10z"/>
<path d="M2140 3140 c0 -5 5 -10 10 -10 6 0 10 5 10 10 0 6 -4 10 -10 10 -5 0
-10 -4 -10 -10z"/>
<path d="M2201 3101 c-13 -10 -19 -21 -14 -24 6 -4 20 3 31 14 37 33 23 41
-17 10z"/>
<path d="M2015 3090 c-3 -5 -1 -10 4 -10 6 0 11 5 11 10 0 6 -2 10 -4 10 -3 0
-8 -4 -11 -10z"/>
<path d="M2130 3096 c0 -2 8 -10 18 -17 15 -13 16 -12 3 4 -13 16 -21 21 -21
13z"/>
<path d="M2040 3005 c0 -8 4 -15 10 -15 5 0 7 7 4 15 -4 8 -8 15 -10 15 -2 0
-4 -7 -4 -15z"/>
<path d="M2230 2960 c0 -5 5 -10 10 -10 6 0 10 5 10 10 0 6 -4 10 -10 10 -5 0
-10 -4 -10 -10z"/>
<path d="M2078 2883 c6 -2 9 -10 6 -15 -4 -7 -2 -8 5 -4 13 9 5 26 -12 25 -9
0 -8 -2 1 -6z"/>
<path d="M2320 2830 c0 -5 5 -10 11 -10 5 0 7 5 4 10 -3 6 -8 10 -11 10 -2 0
-4 -4 -4 -10z"/>
<path d="M2100 2800 c0 -5 5 -10 10 -10 6 0 10 5 10 10 0 6 -4 10 -10 10 -5 0
-10 -4 -10 -10z"/>
<path d="M2410 2691 c0 -12 5 -21 10 -21 6 0 10 6 10 14 0 8 -4 18 -10 21 -5
3 -10 -3 -10 -14z"/>
<path d="M2310 2621 c0 -5 5 -13 10 -16 6 -3 10 -2 10 4 0 5 -4 13 -10 16 -5
3 -10 2 -10 -4z"/>
<path d="M2414 2485 c11 -8 24 -15 30 -15 5 0 1 7 -10 15 -10 8 -23 14 -29 14
-5 0 -1 -6 9 -14z"/>
<path d="M2395 2420 c3 -5 13 -10 21 -10 8 0 12 5 9 10 -3 6 -13 10 -21 10 -8
0 -12 -4 -9 -10z"/>
<path d="M2340 2399 c0 -4 11 -6 24 -5 13 0 22 4 20 8 -6 9 -44 6 -44 -3z"/>
<path d="M4580 4049 c0 -5 5 -7 10 -4 6 3 10 8 10 11 0 2 -4 4 -10 4 -5 0 -10
-5 -10 -11z"/>
<path d="M4585 3960 c-3 -5 -1 -10 4 -10 6 0 11 5 11 10 0 6 -2 10 -4 10 -3 0
-8 -4 -11 -10z"/>
<path d="M4310 3821 c-25 -10 -63 -25 -85 -35 -22 -10 -73 -31 -112 -47 -40
-16 -81 -33 -90 -38 -22 -11 -51 -23 -123 -52 -30 -12 -59 -26 -65 -31 -12
-10 110 34 172 62 24 11 50 20 58 20 8 0 15 4 15 8 0 5 7 9 15 9 14 0 52 15
165 67 25 11 50 21 56 22 6 1 24 9 40 17 37 21 12 19 -46 -2z"/>
<path d="M4353 3795 c0 -8 4 -12 9 -9 5 3 6 10 3 15 -9 13 -12 11 -12 -6z"/>
<path d="M4131 3698 c-1 -9 -9 -22 -18 -27 -10 -6 -13 -11 -7 -11 17 0 37 27
31 42 -4 8 -6 7 -6 -4z"/>
<path d="M3995 3610 c3 -5 8 -10 11 -10 2 0 4 5 4 10 0 6 -5 10 -11 10 -5 0
-7 -4 -4 -10z"/>
<path d="M3780 3600 c-8 -5 -12 -11 -9 -14 2 -3 11 -1 19 4 8 5 12 11 9 14 -2
3 -11 1 -19 -4z"/>
<path d="M3901 3534 c0 -11 3 -14 6 -6 3 7 2 16 -1 19 -3 4 -6 -2 -5 -13z"/>
</g>
</svg>
